# xmcd
#
# Track frame offsets: 
#        150
#        13332
#        26805
#        41450
#        55427
#        69847
#        83457
#        96140
#        111772
#        125145
#        139542
#        152720
#        166507
#        181085
#        195432
#        210402
#        223662
#        236650
#        251642
#        266715
#        281382
#        296290
#        309625
#        323512
#        338385
#
# Disc length: 4674 seconds
#
# Revision: 4
# Processed by: cddbd v1.5.2PL0 Copyright (c) Steve Scherf et al.
# Submitted via: ExactAudioCopyFreeDBPlugin 1.0
#
DISCID=54124019
DTITLE=Various Artist - Roots n' Blues:  The Retrospective, 1925-1950
DTITLE=[box set]
DYEAR=1992
DGENRE=Blues
TTITLE0=Herschel Brown and His Happy Five - Liberty
TTITLE1=Mamie Smith - My Sportin' Man
TTITLE2=Blues Birdhead - Mean Low Blues
TTITLE3=Pink Anderson and Simmie Dooley - C.C. and O.  Blues
TTITLE4=The Okeh Atlanta Sacred Harp Singers - Ortonville
TTITLE5=Slim Doucet - Dear Black Eyes (Chère Yeux Noirs)
TTITLE6=Roosevelt Sykes - Roosevelt Blues
TTITLE7=The Hokum Boys - Gin Mill Blues
TTITLE8=Joe Falcon, accompanied  by Clemo and Ophy Breaux - Osson
TTITLE9=W.T.  Narmour and S.W. Smith - Sweet Milk and Peaches (Breakdo
TTITLE9=wn)
TTITLE10=Gid Tanner and The Skillet Lickers, with Riley Puckett and Clay
TTITLE10=ton McMichen - Soldier's Joy
TTITLE11=Whistlin' Alex Moore - They May Not Be My Toes
TTITLE12=Mississippi Sheiks - The Jazz Fiddler
TTITLE13=Lonnie Johnson - I Have to Do My Time
TTITLE14=Tom Darby and Jimmie Tarlton - Lonesome Frisco Line
TTITLE15=Roy Harvey and Leonard Copeland - Back to the Blue Ridge
TTITLE16=Buster Carter and Preston Young - Darn Good Girl
TTITLE17=Bo Carter - West Jackson Blues
TTITLE18=Lonnie Johnson and Clara Smith (as Violet Green) - You Had To
TTITLE18=o Much
TTITLE19=The Silver Leaf Quartet - Oh! Glory Glory
TTITLE20=The Freeny's Barn Dance Band - Don't You Remember the Time
TTITLE21=Pelican Wildcats - Walkin' Georgia Rose
TTITLE22=Peetie Wheatstraw (The Devil's Son-in-Law) - Police Station B
TTITLE22=lues
TTITLE23=The Tindley Quaker City Gospel Singers - Hallelujah Side
TTITLE24=Will Batts - Highway #61 Blues
EXTD=
EXTT0=
EXTT1=
EXTT2=
EXTT3=
EXTT4=
EXTT5=
EXTT6=
EXTT7=
EXTT8=
EXTT9=
EXTT10=
EXTT11=
EXTT12=
EXTT13=
EXTT14=
EXTT15=
EXTT16=
EXTT17=
EXTT18=
EXTT19=
EXTT20=
EXTT21=
EXTT22=
EXTT23=
EXTT24=
PLAYORDER=
